<svg width="800" height="500" xmlns="http://www.w3.org/2000/svg">
<rect width="100%" height="100%" fill="#fff"/>
<text x="400" y="30" text-anchor="middle" font-family="Arial" font-size="20" font-weight="bold">Efficiency vs Input Power</text>
<line x1="60" y1="440.0" x2="740" y2="440.0" stroke="#eee" stroke-width="1"/>
<text x="50" y="445.0" text-anchor="end" font-family="Arial" font-size="12">0%</text>
<line x1="60" y1="402.0" x2="740" y2="402.0" stroke="#eee" stroke-width="1"/>
<text x="50" y="407.0" text-anchor="end" font-family="Arial" font-size="12">10%</text>
<line x1="60" y1="364.0" x2="740" y2="364.0" stroke="#eee" stroke-width="1"/>
<text x="50" y="369.0" text-anchor="end" font-family="Arial" font-size="12">20%</text>
<line x1="60" y1="326.0" x2="740" y2="326.0" stroke="#eee" stroke-width="1"/>
<text x="50" y="331.0" text-anchor="end" font-family="Arial" font-size="12">30%</text>
<line x1="60" y1="288.0" x2="740" y2="288.0" stroke="#eee" stroke-width="1"/>
<text x="50" y="293.0" text-anchor="end" font-family="Arial" font-size="12">40%</text>
<line x1="60" y1="250.0" x2="740" y2="250.0" stroke="#eee" stroke-width="1"/>
<text x="50" y="255.0" text-anchor="end" font-family="Arial" font-size="12">50%</text>
<line x1="60" y1="212.0" x2="740" y2="212.0" stroke="#eee" stroke-width="1"/>
<text x="50" y="217.0" text-anchor="end" font-family="Arial" font-size="12">60%</text>
<line x1="60" y1="174.0" x2="740" y2="174.0" stroke="#eee" stroke-width="1"/>
<text x="50" y="179.0" text-anchor="end" font-family="Arial" font-size="12">70%</text>
<line x1="60" y1="136.0" x2="740" y2="136.0" stroke="#eee" stroke-width="1"/>
<text x="50" y="141.0" text-anchor="end" font-family="Arial" font-size="12">80%</text>
<line x1="60" y1="98.0" x2="740" y2="98.0" stroke="#eee" stroke-width="1"/>
<text x="50" y="103.0" text-anchor="end" font-family="Arial" font-size="12">90%</text>
<line x1="60" y1="60.0" x2="740" y2="60.0" stroke="#eee" stroke-width="1"/>
<text x="50" y="65.0" text-anchor="end" font-family="Arial" font-size="12">100%</text>
<line x1="60" y1="440" x2="740" y2="440" stroke="#333" stroke-width="2"/>
<line x1="60" y1="60" x2="60" y2="440" stroke="#333" stroke-width="2"/>
<text x="400" y="490" text-anchor="middle" font-family="Arial" font-size="14">Input Power (W)</text>
<polyline points="60.0,67.69192033794513 610.8184596499648,68.29736557825822" fill="none" stroke="red" stroke-width="3" stroke-linejoin="round"/>
<line x1="600" y1="80" x2="630" y2="80" stroke="red" stroke-width="3"/>
<text x="640" y="85" font-family="Arial" font-size="12">Diode Rectification</text>
<polyline points="523.2154847669115,67.74442125541822 739.9912172185913,69.80118629959907" fill="none" stroke="blue" stroke-width="3" stroke-linejoin="round"/>
<line x1="600" y1="110" x2="630" y2="110" stroke="blue" stroke-width="3"/>
<text x="640" y="115" font-family="Arial" font-size="12">Synchronous Rectification</text>
</svg>