<svg width="800" height="500" xmlns="http://www.w3.org/2000/svg">
<rect width="100%" height="100%" fill="#fff"/>
<text x="400" y="30" text-anchor="middle" font-family="Arial" font-size="20" font-weight="bold">Efficiency vs Input Power (High Res)</text>
<line x1="80" y1="400.0" x2="750" y2="400.0" stroke="#eee" stroke-width="1"/>
<text x="70" y="405.0" text-anchor="end" font-family="Arial" font-size="12">0%</text>
<line x1="80" y1="366.0" x2="750" y2="366.0" stroke="#eee" stroke-width="1"/>
<text x="70" y="371.0" text-anchor="end" font-family="Arial" font-size="12">10%</text>
<line x1="80" y1="332.0" x2="750" y2="332.0" stroke="#eee" stroke-width="1"/>
<text x="70" y="337.0" text-anchor="end" font-family="Arial" font-size="12">20%</text>
<line x1="80" y1="298.0" x2="750" y2="298.0" stroke="#eee" stroke-width="1"/>
<text x="70" y="303.0" text-anchor="end" font-family="Arial" font-size="12">30%</text>
<line x1="80" y1="264.0" x2="750" y2="264.0" stroke="#eee" stroke-width="1"/>
<text x="70" y="269.0" text-anchor="end" font-family="Arial" font-size="12">40%</text>
<line x1="80" y1="230.0" x2="750" y2="230.0" stroke="#eee" stroke-width="1"/>
<text x="70" y="235.0" text-anchor="end" font-family="Arial" font-size="12">50%</text>
<line x1="80" y1="196.0" x2="750" y2="196.0" stroke="#eee" stroke-width="1"/>
<text x="70" y="201.0" text-anchor="end" font-family="Arial" font-size="12">60%</text>
<line x1="80" y1="162.00000000000003" x2="750" y2="162.00000000000003" stroke="#eee" stroke-width="1"/>
<text x="70" y="167.00000000000003" text-anchor="end" font-family="Arial" font-size="12">70%</text>
<line x1="80" y1="128.0" x2="750" y2="128.0" stroke="#eee" stroke-width="1"/>
<text x="70" y="133.0" text-anchor="end" font-family="Arial" font-size="12">80%</text>
<line x1="80" y1="94.0" x2="750" y2="94.0" stroke="#eee" stroke-width="1"/>
<text x="70" y="99.0" text-anchor="end" font-family="Arial" font-size="12">90%</text>
<line x1="80" y1="60.0" x2="750" y2="60.0" stroke="#eee" stroke-width="1"/>
<text x="70" y="65.0" text-anchor="end" font-family="Arial" font-size="12">100%</text>
<line x1="80.0" y1="400" x2="80.0" y2="405" stroke="#333" stroke-width="2"/>
<text x="80.0" y="425" text-anchor="middle" font-family="Arial" font-size="12" fill="#333">0.0</text>
<line x1="154.44390651996582" y1="400" x2="154.44390651996582" y2="405" stroke="#333" stroke-width="2"/>
<text x="154.44390651996582" y="425" text-anchor="middle" font-family="Arial" font-size="12" fill="#333">15.4</text>
<line x1="228.88781303993164" y1="400" x2="228.88781303993164" y2="405" stroke="#333" stroke-width="2"/>
<text x="228.88781303993164" y="425" text-anchor="middle" font-family="Arial" font-size="12" fill="#333">30.8</text>
<line x1="303.33171955989746" y1="400" x2="303.33171955989746" y2="405" stroke="#333" stroke-width="2"/>
<text x="303.33171955989746" y="425" text-anchor="middle" font-family="Arial" font-size="12" fill="#333">46.1</text>
<line x1="377.7756260798633" y1="400" x2="377.7756260798633" y2="405" stroke="#333" stroke-width="2"/>
<text x="377.7756260798633" y="425" text-anchor="middle" font-family="Arial" font-size="12" fill="#333">61.5</text>
<line x1="452.2195325998291" y1="400" x2="452.2195325998291" y2="405" stroke="#333" stroke-width="2"/>
<text x="452.2195325998291" y="425" text-anchor="middle" font-family="Arial" font-size="12" fill="#333">76.9</text>
<line x1="526.6634391197949" y1="400" x2="526.6634391197949" y2="405" stroke="#333" stroke-width="2"/>
<text x="526.6634391197949" y="425" text-anchor="middle" font-family="Arial" font-size="12" fill="#333">92.3</text>
<line x1="601.1073456397609" y1="400" x2="601.1073456397609" y2="405" stroke="#333" stroke-width="2"/>
<text x="601.1073456397609" y="425" text-anchor="middle" font-family="Arial" font-size="12" fill="#333">107.6</text>
<line x1="675.5512521597266" y1="400" x2="675.5512521597266" y2="405" stroke="#333" stroke-width="2"/>
<text x="675.5512521597266" y="425" text-anchor="middle" font-family="Arial" font-size="12" fill="#333">123.0</text>
<line x1="749.9951586796925" y1="400" x2="749.9951586796925" y2="405" stroke="#333" stroke-width="2"/>
<text x="749.9951586796925" y="425" text-anchor="middle" font-family="Arial" font-size="12" fill="#333">138.4</text>
<line x1="80" y1="400" x2="750" y2="400" stroke="#333" stroke-width="2"/>
<line x1="80" y1="60" x2="80" y2="400" stroke="#333" stroke-width="2"/>
<text x="400" y="480" text-anchor="middle" font-family="Arial" font-size="14" font-weight="bold">Input Power (W)</text>
<polyline points="86.37839109197063,70.48524087469349 104.22378822475287,68.54493309750075 130.41412075842533,69.05399825223515 148.0452410543962,69.04483070202275 213.80392652754495,69.32118576302827 229.88727672119776,69.65090439276486 247.84954332620384,69.94888982469092 267.7386554136077,70.2372454768634 280.3430328342679,70.56843692532243 396.82616769755475,73.66606511710347 415.9702005896295,76.77746972465434 434.9864226255853,79.40789069926336 453.89710387883696,81.653260892084 472.72064136655297,83.58542132805718 491.4701066535638,85.25858529049441 510.1576030406382,86.7166828172463 528.791360772299,87.992539390422 547.3786418290075,89.11322308485126 565.9281605873173,90.10242002171941 584.4365281230129,90.97310785649847 602.920689057171,91.74775024997228 621.3709607491762,92.43017983777935 639.8018671599515,93.0384848222779 658.2085669691891,93.5781030209659 676.6007428175038,94.06042310782186 694.9687120642811,94.4831332414879 713.3269986704435,94.85846640727124 731.6659199953754,95.19096616024666 749.9951586796925,95.48120903815999" fill="none" stroke="red" stroke-width="3" stroke-linejoin="round"/>
<circle cx="86.37839109197063" cy="70.48524087469349" r="3" fill="red"/>
<circle cx="104.22378822475287" cy="68.54493309750075" r="3" fill="red"/>
<circle cx="130.41412075842533" cy="69.05399825223515" r="3" fill="red"/>
<circle cx="148.0452410543962" cy="69.04483070202275" r="3" fill="red"/>
<circle cx="213.80392652754495" cy="69.32118576302827" r="3" fill="red"/>
<circle cx="229.88727672119776" cy="69.65090439276486" r="3" fill="red"/>
<circle cx="247.84954332620384" cy="69.94888982469092" r="3" fill="red"/>
<circle cx="267.7386554136077" cy="70.2372454768634" r="3" fill="red"/>
<circle cx="280.3430328342679" cy="70.56843692532243" r="3" fill="red"/>
<circle cx="396.82616769755475" cy="73.66606511710347" r="3" fill="red"/>
<circle cx="415.9702005896295" cy="76.77746972465434" r="3" fill="red"/>
<circle cx="434.9864226255853" cy="79.40789069926336" r="3" fill="red"/>
<circle cx="453.89710387883696" cy="81.653260892084" r="3" fill="red"/>
<circle cx="472.72064136655297" cy="83.58542132805718" r="3" fill="red"/>
<circle cx="491.4701066535638" cy="85.25858529049441" r="3" fill="red"/>
<circle cx="510.1576030406382" cy="86.7166828172463" r="3" fill="red"/>
<circle cx="528.791360772299" cy="87.992539390422" r="3" fill="red"/>
<circle cx="547.3786418290075" cy="89.11322308485126" r="3" fill="red"/>
<circle cx="565.9281605873173" cy="90.10242002171941" r="3" fill="red"/>
<circle cx="584.4365281230129" cy="90.97310785649847" r="3" fill="red"/>
<circle cx="602.920689057171" cy="91.74775024997228" r="3" fill="red"/>
<circle cx="621.3709607491762" cy="92.43017983777935" r="3" fill="red"/>
<circle cx="639.8018671599515" cy="93.0384848222779" r="3" fill="red"/>
<circle cx="658.2085669691891" cy="93.5781030209659" r="3" fill="red"/>
<circle cx="676.6007428175038" cy="94.06042310782186" r="3" fill="red"/>
<circle cx="694.9687120642811" cy="94.4831332414879" r="3" fill="red"/>
<circle cx="713.3269986704435" cy="94.85846640727124" r="3" fill="red"/>
<circle cx="731.6659199953754" cy="95.19096616024666" r="3" fill="red"/>
<circle cx="749.9951586796925" cy="95.48120903815999" r="3" fill="red"/>
<polyline points="90.50605237296953,73.43812209688122 142.03764668477947,76.75563047244458 165.32875455228626,81.75216027143114 187.32335684143592,86.22522351837313 208.1599153130239,90.24437048817435 227.9546216544309,93.878956048271 246.80575466789986,97.18481712166152 264.7975533267819,100.20937415675292 282.0016691716284,102.98759721506542 298.48297589456035,105.555033592739 314.29569628302215,107.93441471226373 329.4896959361813,110.14883551250256 344.10806260477483,112.21511597000341 358.1904951153246,114.15106061950831 371.77185097404475,115.9682413260989 384.8835987629343,117.67905829745945 397.55478640383836,119.29367032256687 409.8105887623562,120.82000349362414 421.67521244002546,122.26582292829733 433.17044337822995,123.638257856152 444.31661512226134,124.94344963223324 455.13115642522683,126.18620564158618 465.63149604023357,127.37108652148913 475.8331261922654,128.5028387478688 485.75105497427603,129.58539553752541 495.3978698190647,130.62156624624424 504.78664229146193,131.6146789618187 513.9289915602058,132.56773658015203 522.8360526620036,133.48370669759845 531.5175082374703,134.36425689419093 539.9830409272213,135.21146298516294" fill="none" stroke="orange" stroke-width="3" stroke-linejoin="round"/>
<circle cx="90.50605237296953" cy="73.43812209688122" r="3" fill="orange"/>
<circle cx="142.03764668477947" cy="76.75563047244458" r="3" fill="orange"/>
<circle cx="165.32875455228626" cy="81.75216027143114" r="3" fill="orange"/>
<circle cx="187.32335684143592" cy="86.22522351837313" r="3" fill="orange"/>
<circle cx="208.1599153130239" cy="90.24437048817435" r="3" fill="orange"/>
<circle cx="227.9546216544309" cy="93.878956048271" r="3" fill="orange"/>
<circle cx="246.80575466789986" cy="97.18481712166152" r="3" fill="orange"/>
<circle cx="264.7975533267819" cy="100.20937415675292" r="3" fill="orange"/>
<circle cx="282.0016691716284" cy="102.98759721506542" r="3" fill="orange"/>
<circle cx="298.48297589456035" cy="105.555033592739" r="3" fill="orange"/>
<circle cx="314.29569628302215" cy="107.93441471226373" r="3" fill="orange"/>
<circle cx="329.4896959361813" cy="110.14883551250256" r="3" fill="orange"/>
<circle cx="344.10806260477483" cy="112.21511597000341" r="3" fill="orange"/>
<circle cx="358.1904951153246" cy="114.15106061950831" r="3" fill="orange"/>
<circle cx="371.77185097404475" cy="115.9682413260989" r="3" fill="orange"/>
<circle cx="384.8835987629343" cy="117.67905829745945" r="3" fill="orange"/>
<circle cx="397.55478640383836" cy="119.29367032256687" r="3" fill="orange"/>
<circle cx="409.8105887623562" cy="120.82000349362414" r="3" fill="orange"/>
<circle cx="421.67521244002546" cy="122.26582292829733" r="3" fill="orange"/>
<circle cx="433.17044337822995" cy="123.638257856152" r="3" fill="orange"/>
<circle cx="444.31661512226134" cy="124.94344963223324" r="3" fill="orange"/>
<circle cx="455.13115642522683" cy="126.18620564158618" r="3" fill="orange"/>
<circle cx="465.63149604023357" cy="127.37108652148913" r="3" fill="orange"/>
<circle cx="475.8331261922654" cy="128.5028387478688" r="3" fill="orange"/>
<circle cx="485.75105497427603" cy="129.58539553752541" r="3" fill="orange"/>
<circle cx="495.3978698190647" cy="130.62156624624424" r="3" fill="orange"/>
<circle cx="504.78664229146193" cy="131.6146789618187" r="3" fill="orange"/>
<circle cx="513.9289915602058" cy="132.56773658015203" r="3" fill="orange"/>
<circle cx="522.8360526620036" cy="133.48370669759845" r="3" fill="orange"/>
<circle cx="531.5175082374703" cy="134.36425689419093" r="3" fill="orange"/>
<circle cx="539.9830409272213" cy="135.21146298516294" r="3" fill="orange"/>
<polyline points="90.9828255968553,63.875762598300184 118.82448407422393,62.44928548270434 146.3386756459911,62.786478478536935 173.5347924735534,63.31023131350247 200.42058066940285,63.88067622168171 227.00427047806232,64.46547777832666 253.2926397479623,65.04854097696574 279.2924663275334,65.62552077133682 305.01052806520613,66.19324355435259 330.453602809411,66.75169380950086 355.6279842765478,67.30016651326844 377.52430776345454,69.94464260143974 396.82616769755475,73.66606511710347 415.9702005896295,76.77746972465434 434.9864226255853,79.40789069926336 453.89710387883696,81.653260892084 472.72064136655297,83.58542132805718 491.4701066535638,85.25858529049441 510.1576030406382,86.7166828172463 528.791360772299,87.992539390422 547.3786418290075,89.11322308485126 565.9281605873173,90.10242002171941 584.4365281230129,90.97310785649847 602.920689057171,91.74775024997228 621.3709607491762,92.43017983777935 639.8018671599515,93.0384848222779 658.2085669691891,93.5781030209659 676.6007428175038,94.06042310782186 694.9687120642811,94.4831332414879 713.3269986704435,94.85846640727124 731.6659199953754,95.19096616024666 749.9951586796925,95.48120903815999" fill="none" stroke="blue" stroke-width="3" stroke-linejoin="round"/>
<circle cx="90.9828255968553" cy="63.875762598300184" r="3" fill="blue"/>
<circle cx="118.82448407422393" cy="62.44928548270434" r="3" fill="blue"/>
<circle cx="146.3386756459911" cy="62.786478478536935" r="3" fill="blue"/>
<circle cx="173.5347924735534" cy="63.31023131350247" r="3" fill="blue"/>
<circle cx="200.42058066940285" cy="63.88067622168171" r="3" fill="blue"/>
<circle cx="227.00427047806232" cy="64.46547777832666" r="3" fill="blue"/>
<circle cx="253.2926397479623" cy="65.04854097696574" r="3" fill="blue"/>
<circle cx="279.2924663275334" cy="65.62552077133682" r="3" fill="blue"/>
<circle cx="305.01052806520613" cy="66.19324355435259" r="3" fill="blue"/>
<circle cx="330.453602809411" cy="66.75169380950086" r="3" fill="blue"/>
<circle cx="355.6279842765478" cy="67.30016651326844" r="3" fill="blue"/>
<circle cx="377.52430776345454" cy="69.94464260143974" r="3" fill="blue"/>
<circle cx="396.82616769755475" cy="73.66606511710347" r="3" fill="blue"/>
<circle cx="415.9702005896295" cy="76.77746972465434" r="3" fill="blue"/>
<circle cx="434.9864226255853" cy="79.40789069926336" r="3" fill="blue"/>
<circle cx="453.89710387883696" cy="81.653260892084" r="3" fill="blue"/>
<circle cx="472.72064136655297" cy="83.58542132805718" r="3" fill="blue"/>
<circle cx="491.4701066535638" cy="85.25858529049441" r="3" fill="blue"/>
<circle cx="510.1576030406382" cy="86.7166828172463" r="3" fill="blue"/>
<circle cx="528.791360772299" cy="87.992539390422" r="3" fill="blue"/>
<circle cx="547.3786418290075" cy="89.11322308485126" r="3" fill="blue"/>
<circle cx="565.9281605873173" cy="90.10242002171941" r="3" fill="blue"/>
<circle cx="584.4365281230129" cy="90.97310785649847" r="3" fill="blue"/>
<circle cx="602.920689057171" cy="91.74775024997228" r="3" fill="blue"/>
<circle cx="621.3709607491762" cy="92.43017983777935" r="3" fill="blue"/>
<circle cx="639.8018671599515" cy="93.0384848222779" r="3" fill="blue"/>
<circle cx="658.2085669691891" cy="93.5781030209659" r="3" fill="blue"/>
<circle cx="676.6007428175038" cy="94.06042310782186" r="3" fill="blue"/>
<circle cx="694.9687120642811" cy="94.4831332414879" r="3" fill="blue"/>
<circle cx="713.3269986704435" cy="94.85846640727124" r="3" fill="blue"/>
<circle cx="731.6659199953754" cy="95.19096616024666" r="3" fill="blue"/>
<circle cx="749.9951586796925" cy="95.48120903815999" r="3" fill="blue"/>
<polyline points="90.85051231285046,66.55961235571539 117.2816037054165,71.23618471543534 142.03764668477947,76.75563047244458 165.32875455228626,81.75216027143114 187.32335684143592,86.22522351837313 208.1599153130239,90.24437048817435 227.9546216544309,93.878956048271 246.80575466789986,97.18481712166152 264.7975533267819,100.20937415675292 282.0016691716284,102.98759721506542 298.48297589456035,105.555033592739 314.29569628302215,107.93441471226373 329.4896959361813,110.14883551250256 344.10806260477483,112.21511597000341 358.1904951153246,114.15106061950831 371.77185097404475,115.9682413260989 384.8835987629343,117.67905829745945 397.55478640383836,119.29367032256687 409.8105887623562,120.82000349362414 421.67521244002546,122.26582292829733 433.17044337822995,123.638257856152 444.31661512226134,124.94344963223324 455.13115642522683,126.18620564158618 465.63149604023357,127.37108652148913 475.8331261922654,128.5028387478688 485.75105497427603,129.58539553752541 495.3978698190647,130.62156624624424 504.78664229146193,131.6146789618187 513.9289915602058,132.56773658015203 522.8360526620036,133.48370669759845 531.5175082374703,134.36425689419093 539.9830409272213,135.21146298516294" fill="none" stroke="cyan" stroke-width="3" stroke-linejoin="round"/>
<circle cx="90.85051231285046" cy="66.55961235571539" r="3" fill="cyan"/>
<circle cx="117.2816037054165" cy="71.23618471543534" r="3" fill="cyan"/>
<circle cx="142.03764668477947" cy="76.75563047244458" r="3" fill="cyan"/>
<circle cx="165.32875455228626" cy="81.75216027143114" r="3" fill="cyan"/>
<circle cx="187.32335684143592" cy="86.22522351837313" r="3" fill="cyan"/>
<circle cx="208.1599153130239" cy="90.24437048817435" r="3" fill="cyan"/>
<circle cx="227.9546216544309" cy="93.878956048271" r="3" fill="cyan"/>
<circle cx="246.80575466789986" cy="97.18481712166152" r="3" fill="cyan"/>
<circle cx="264.7975533267819" cy="100.20937415675292" r="3" fill="cyan"/>
<circle cx="282.0016691716284" cy="102.98759721506542" r="3" fill="cyan"/>
<circle cx="298.48297589456035" cy="105.555033592739" r="3" fill="cyan"/>
<circle cx="314.29569628302215" cy="107.93441471226373" r="3" fill="cyan"/>
<circle cx="329.4896959361813" cy="110.14883551250256" r="3" fill="cyan"/>
<circle cx="344.10806260477483" cy="112.21511597000341" r="3" fill="cyan"/>
<circle cx="358.1904951153246" cy="114.15106061950831" r="3" fill="cyan"/>
<circle cx="371.77185097404475" cy="115.9682413260989" r="3" fill="cyan"/>
<circle cx="384.8835987629343" cy="117.67905829745945" r="3" fill="cyan"/>
<circle cx="397.55478640383836" cy="119.29367032256687" r="3" fill="cyan"/>
<circle cx="409.8105887623562" cy="120.82000349362414" r="3" fill="cyan"/>
<circle cx="421.67521244002546" cy="122.26582292829733" r="3" fill="cyan"/>
<circle cx="433.17044337822995" cy="123.638257856152" r="3" fill="cyan"/>
<circle cx="444.31661512226134" cy="124.94344963223324" r="3" fill="cyan"/>
<circle cx="455.13115642522683" cy="126.18620564158618" r="3" fill="cyan"/>
<circle cx="465.63149604023357" cy="127.37108652148913" r="3" fill="cyan"/>
<circle cx="475.8331261922654" cy="128.5028387478688" r="3" fill="cyan"/>
<circle cx="485.75105497427603" cy="129.58539553752541" r="3" fill="cyan"/>
<circle cx="495.3978698190647" cy="130.62156624624424" r="3" fill="cyan"/>
<circle cx="504.78664229146193" cy="131.6146789618187" r="3" fill="cyan"/>
<circle cx="513.9289915602058" cy="132.56773658015203" r="3" fill="cyan"/>
<circle cx="522.8360526620036" cy="133.48370669759845" r="3" fill="cyan"/>
<circle cx="531.5175082374703" cy="134.36425689419093" r="3" fill="cyan"/>
<circle cx="539.9830409272213" cy="135.21146298516294" r="3" fill="cyan"/>
<line x1="580" y1="80" x2="610" y2="80" stroke="red" stroke-width="3"/>
<text x="620" y="85" font-family="Arial" font-size="12">Diode (High-Spec L)</text>
<line x1="580" y1="105" x2="610" y2="105" stroke="orange" stroke-width="3"/>
<text x="620" y="110" font-family="Arial" font-size="12">Diode (Low-Spec L)</text>
<line x1="580" y1="130" x2="610" y2="130" stroke="blue" stroke-width="3"/>
<text x="620" y="135" font-family="Arial" font-size="12">Sync (High-Spec L)</text>
<line x1="580" y1="155" x2="610" y2="155" stroke="cyan" stroke-width="3"/>
<text x="620" y="160" font-family="Arial" font-size="12">Sync (Low-Spec L)</text>
</svg>