<svg width="800" height="500" xmlns="http://www.w3.org/2000/svg">
<rect width="100%" height="100%" fill="#fff"/>
<text x="400" y="30" text-anchor="middle" font-family="Arial" font-size="20" font-weight="bold">Efficiency vs Solar Voltage (High Res)</text>
<line x1="80" y1="400.0" x2="750" y2="400.0" stroke="#eee" stroke-width="1"/>
<text x="70" y="405.0" text-anchor="end" font-family="Arial" font-size="12">0%</text>
<line x1="80" y1="366.0" x2="750" y2="366.0" stroke="#eee" stroke-width="1"/>
<text x="70" y="371.0" text-anchor="end" font-family="Arial" font-size="12">10%</text>
<line x1="80" y1="332.0" x2="750" y2="332.0" stroke="#eee" stroke-width="1"/>
<text x="70" y="337.0" text-anchor="end" font-family="Arial" font-size="12">20%</text>
<line x1="80" y1="298.0" x2="750" y2="298.0" stroke="#eee" stroke-width="1"/>
<text x="70" y="303.0" text-anchor="end" font-family="Arial" font-size="12">30%</text>
<line x1="80" y1="264.0" x2="750" y2="264.0" stroke="#eee" stroke-width="1"/>
<text x="70" y="269.0" text-anchor="end" font-family="Arial" font-size="12">40%</text>
<line x1="80" y1="230.0" x2="750" y2="230.0" stroke="#eee" stroke-width="1"/>
<text x="70" y="235.0" text-anchor="end" font-family="Arial" font-size="12">50%</text>
<line x1="80" y1="196.0" x2="750" y2="196.0" stroke="#eee" stroke-width="1"/>
<text x="70" y="201.0" text-anchor="end" font-family="Arial" font-size="12">60%</text>
<line x1="80" y1="162.00000000000003" x2="750" y2="162.00000000000003" stroke="#eee" stroke-width="1"/>
<text x="70" y="167.00000000000003" text-anchor="end" font-family="Arial" font-size="12">70%</text>
<line x1="80" y1="128.0" x2="750" y2="128.0" stroke="#eee" stroke-width="1"/>
<text x="70" y="133.0" text-anchor="end" font-family="Arial" font-size="12">80%</text>
<line x1="80" y1="94.0" x2="750" y2="94.0" stroke="#eee" stroke-width="1"/>
<text x="70" y="99.0" text-anchor="end" font-family="Arial" font-size="12">90%</text>
<line x1="80" y1="60.0" x2="750" y2="60.0" stroke="#eee" stroke-width="1"/>
<text x="70" y="65.0" text-anchor="end" font-family="Arial" font-size="12">100%</text>
<line x1="80.0" y1="400" x2="80.0" y2="405" stroke="#333" stroke-width="2"/>
<text x="80.0" y="425" text-anchor="middle" font-family="Arial" font-size="12" fill="#333">0.0</text>
<line x1="154.441466785773" y1="400" x2="154.441466785773" y2="405" stroke="#333" stroke-width="2"/>
<text x="154.441466785773" y="425" text-anchor="middle" font-family="Arial" font-size="12" fill="#333">2.8</text>
<line x1="228.882933571546" y1="400" x2="228.882933571546" y2="405" stroke="#333" stroke-width="2"/>
<text x="228.882933571546" y="425" text-anchor="middle" font-family="Arial" font-size="12" fill="#333">5.6</text>
<line x1="303.32440035731906" y1="400" x2="303.32440035731906" y2="405" stroke="#333" stroke-width="2"/>
<text x="303.32440035731906" y="425" text-anchor="middle" font-family="Arial" font-size="12" fill="#333">8.3</text>
<line x1="377.765867143092" y1="400" x2="377.765867143092" y2="405" stroke="#333" stroke-width="2"/>
<text x="377.765867143092" y="425" text-anchor="middle" font-family="Arial" font-size="12" fill="#333">11.1</text>
<line x1="452.20733392886507" y1="400" x2="452.20733392886507" y2="405" stroke="#333" stroke-width="2"/>
<text x="452.20733392886507" y="425" text-anchor="middle" font-family="Arial" font-size="12" fill="#333">13.9</text>
<line x1="526.6488007146381" y1="400" x2="526.6488007146381" y2="405" stroke="#333" stroke-width="2"/>
<text x="526.6488007146381" y="425" text-anchor="middle" font-family="Arial" font-size="12" fill="#333">16.7</text>
<line x1="601.0902675004111" y1="400" x2="601.0902675004111" y2="405" stroke="#333" stroke-width="2"/>
<text x="601.0902675004111" y="425" text-anchor="middle" font-family="Arial" font-size="12" fill="#333">19.4</text>
<line x1="675.531734286184" y1="400" x2="675.531734286184" y2="405" stroke="#333" stroke-width="2"/>
<text x="675.531734286184" y="425" text-anchor="middle" font-family="Arial" font-size="12" fill="#333">22.2</text>
<line x1="749.9732010719571" y1="400" x2="749.9732010719571" y2="405" stroke="#333" stroke-width="2"/>
<text x="749.9732010719571" y="425" text-anchor="middle" font-family="Arial" font-size="12" fill="#333">25.0</text>
<line x1="80" y1="400" x2="750" y2="400" stroke="#333" stroke-width="2"/>
<line x1="80" y1="60" x2="80" y2="400" stroke="#333" stroke-width="2"/>
<text x="400" y="480" text-anchor="middle" font-family="Arial" font-size="14" font-weight="bold">Solar OCV (V)</text>
<polyline points="533.8532458701652,69.03093111118966 555.4639014439422,70.01454178537512 577.0772369105237,71.20293294293197 598.6878924843006,72.57489654057736 620.301227950882,91.95005095225275 641.9118835246591,109.16000000000003 663.5252189912403,124.55004532406707 685.1358745650174,138.39084541777646 706.7492100315987,150.90937657436112 728.3598656053757,162.28260834134656 749.9732010719571,172.66438067925003" fill="none" stroke="red" stroke-width="3" stroke-linejoin="round"/>
<circle cx="533.8532458701652" cy="69.03093111118966" r="3" fill="red"/>
<circle cx="555.4639014439422" cy="70.01454178537512" r="3" fill="red"/>
<circle cx="577.0772369105237" cy="71.20293294293197" r="3" fill="red"/>
<circle cx="598.6878924843006" cy="72.57489654057736" r="3" fill="red"/>
<circle cx="620.301227950882" cy="91.95005095225275" r="3" fill="red"/>
<circle cx="641.9118835246591" cy="109.16000000000003" r="3" fill="red"/>
<circle cx="663.5252189912403" cy="124.55004532406707" r="3" fill="red"/>
<circle cx="685.1358745650174" cy="138.39084541777646" r="3" fill="red"/>
<circle cx="706.7492100315987" cy="150.90937657436112" r="3" fill="red"/>
<circle cx="728.3598656053757" cy="162.28260834134656" r="3" fill="red"/>
<circle cx="749.9732010719571" cy="172.66438067925003" r="3" fill="red"/>
<polyline points="447.4052637894484,74.13432691936913 469.01591936322546,80.2892283742795 490.6292548298068,86.54493583134843 512.239910403584,92.83633726176566 533.8532458701652,99.12212133640065 555.4639014439422,105.37973372418605 577.0772369105237,111.58810015738169 598.6878924843006,117.72961263127172 620.301227950882,123.78990874683637 641.9118835246591,129.75514322831555 663.5252189912403,135.615186154647 685.1358745650174,141.3610634490139 706.7492100315987,150.90937657436112 728.3598656053757,162.28260834134656 749.9732010719571,172.66438067925003" fill="none" stroke="orange" stroke-width="3" stroke-linejoin="round"/>
<circle cx="447.4052637894484" cy="74.13432691936913" r="3" fill="orange"/>
<circle cx="469.01591936322546" cy="80.2892283742795" r="3" fill="orange"/>
<circle cx="490.6292548298068" cy="86.54493583134843" r="3" fill="orange"/>
<circle cx="512.239910403584" cy="92.83633726176566" r="3" fill="orange"/>
<circle cx="533.8532458701652" cy="99.12212133640065" r="3" fill="orange"/>
<circle cx="555.4639014439422" cy="105.37973372418605" r="3" fill="orange"/>
<circle cx="577.0772369105237" cy="111.58810015738169" r="3" fill="orange"/>
<circle cx="598.6878924843006" cy="117.72961263127172" r="3" fill="orange"/>
<circle cx="620.301227950882" cy="123.78990874683637" r="3" fill="orange"/>
<circle cx="641.9118835246591" cy="129.75514322831555" r="3" fill="orange"/>
<circle cx="663.5252189912403" cy="135.615186154647" r="3" fill="orange"/>
<circle cx="685.1358745650174" cy="141.3610634490139" r="3" fill="orange"/>
<circle cx="706.7492100315987" cy="150.90937657436112" r="3" fill="orange"/>
<circle cx="728.3598656053757" cy="162.28260834134656" r="3" fill="orange"/>
<circle cx="749.9732010719571" cy="172.66438067925003" r="3" fill="orange"/>
<polyline points="425.791928322867,62.45457375981937 447.4052637894484,62.80746443802053 469.01591936322546,63.572690381744906 490.6292548298068,64.49652409644449 512.239910403584,65.5336735124194 533.8532458701652,66.67179325213192 555.4639014439422,67.90547712472471 577.0772369105237,69.23337387599753 598.6878924843006,72.57489654057736 620.301227950882,91.95005095225275 641.9118835246591,109.16000000000003 663.5252189912403,124.55004532406707 685.1358745650174,138.39084541777646 706.7492100315987,150.90937657436112 728.3598656053757,162.28260834134656 749.9732010719571,172.66438067925003" fill="none" stroke="blue" stroke-width="3" stroke-linejoin="round"/>
<circle cx="425.791928322867" cy="62.45457375981937" r="3" fill="blue"/>
<circle cx="447.4052637894484" cy="62.80746443802053" r="3" fill="blue"/>
<circle cx="469.01591936322546" cy="63.572690381744906" r="3" fill="blue"/>
<circle cx="490.6292548298068" cy="64.49652409644449" r="3" fill="blue"/>
<circle cx="512.239910403584" cy="65.5336735124194" r="3" fill="blue"/>
<circle cx="533.8532458701652" cy="66.67179325213192" r="3" fill="blue"/>
<circle cx="555.4639014439422" cy="67.90547712472471" r="3" fill="blue"/>
<circle cx="577.0772369105237" cy="69.23337387599753" r="3" fill="blue"/>
<circle cx="598.6878924843006" cy="72.57489654057736" r="3" fill="blue"/>
<circle cx="620.301227950882" cy="91.95005095225275" r="3" fill="blue"/>
<circle cx="641.9118835246591" cy="109.16000000000003" r="3" fill="blue"/>
<circle cx="663.5252189912403" cy="124.55004532406707" r="3" fill="blue"/>
<circle cx="685.1358745650174" cy="138.39084541777646" r="3" fill="blue"/>
<circle cx="706.7492100315987" cy="150.90937657436112" r="3" fill="blue"/>
<circle cx="728.3598656053757" cy="162.28260834134656" r="3" fill="blue"/>
<circle cx="749.9732010719571" cy="172.66438067925003" r="3" fill="blue"/>
<polyline points="425.791928322867,68.37059322376132 447.4052637894484,74.13432691936913 469.01591936322546,80.2892283742795 490.6292548298068,86.54493583134843 512.239910403584,92.83633726176566 533.8532458701652,99.12212133640065 555.4639014439422,105.37973372418605 577.0772369105237,111.58810015738169 598.6878924843006,117.72961263127172 620.301227950882,123.78990874683637 641.9118835246591,129.75514322831555 663.5252189912403,135.615186154647 685.1358745650174,141.3610634490139 706.7492100315987,150.90937657436112 728.3598656053757,162.28260834134656 749.9732010719571,172.66438067925003" fill="none" stroke="cyan" stroke-width="3" stroke-linejoin="round"/>
<circle cx="425.791928322867" cy="68.37059322376132" r="3" fill="cyan"/>
<circle cx="447.4052637894484" cy="74.13432691936913" r="3" fill="cyan"/>
<circle cx="469.01591936322546" cy="80.2892283742795" r="3" fill="cyan"/>
<circle cx="490.6292548298068" cy="86.54493583134843" r="3" fill="cyan"/>
<circle cx="512.239910403584" cy="92.83633726176566" r="3" fill="cyan"/>
<circle cx="533.8532458701652" cy="99.12212133640065" r="3" fill="cyan"/>
<circle cx="555.4639014439422" cy="105.37973372418605" r="3" fill="cyan"/>
<circle cx="577.0772369105237" cy="111.58810015738169" r="3" fill="cyan"/>
<circle cx="598.6878924843006" cy="117.72961263127172" r="3" fill="cyan"/>
<circle cx="620.301227950882" cy="123.78990874683637" r="3" fill="cyan"/>
<circle cx="641.9118835246591" cy="129.75514322831555" r="3" fill="cyan"/>
<circle cx="663.5252189912403" cy="135.615186154647" r="3" fill="cyan"/>
<circle cx="685.1358745650174" cy="141.3610634490139" r="3" fill="cyan"/>
<circle cx="706.7492100315987" cy="150.90937657436112" r="3" fill="cyan"/>
<circle cx="728.3598656053757" cy="162.28260834134656" r="3" fill="cyan"/>
<circle cx="749.9732010719571" cy="172.66438067925003" r="3" fill="cyan"/>
<line x1="580" y1="80" x2="610" y2="80" stroke="red" stroke-width="3"/>
<text x="620" y="85" font-family="Arial" font-size="12">Diode (High-Spec L)</text>
<line x1="580" y1="105" x2="610" y2="105" stroke="orange" stroke-width="3"/>
<text x="620" y="110" font-family="Arial" font-size="12">Diode (Low-Spec L)</text>
<line x1="580" y1="130" x2="610" y2="130" stroke="blue" stroke-width="3"/>
<text x="620" y="135" font-family="Arial" font-size="12">Sync (High-Spec L)</text>
<line x1="580" y1="155" x2="610" y2="155" stroke="cyan" stroke-width="3"/>
<text x="620" y="160" font-family="Arial" font-size="12">Sync (Low-Spec L)</text>
</svg>