<svg width="800" height="500" xmlns="http://www.w3.org/2000/svg">
<rect width="100%" height="100%" fill="#fff"/>
<line x1="80" y1="250" x2="720" y2="250" stroke="#333" stroke-width="2"/>
<line x1="400" y1="80" x2="400" y2="420" stroke="#333" stroke-width="2"/>
<text x="720" y="275" text-anchor="end" font-family="Arial" font-size="14" font-weight="bold">Voltage (V)</text>
<text x="410" y="90" text-anchor="start" font-family="Arial" font-size="14" font-weight="bold">Sliding Surface S = dP/dV</text>
<polyline points="100,86.99424319685767 120,90.1878528861026 140,111.59665926346719 160,140.7314583600087 180,159.99980413101406 200,160.88042221778738 220,151.75763029516486 240,150.21283506753235 260,166.86026802562424 280,195.58830996397853 300,219.17848549326277 320,225.13604990615858 340,217.17759983880265 360,211.81405146348635 380,223.17058030384206" fill="none" stroke="blue" stroke-width="2" stroke-dasharray="5,5"/>
<polygon points="380,245 400,250 380,255" fill="blue"/>
<text x="250" y="170" fill="blue" font-family="Arial" font-size="12">Startup Trajectory</text>
<polyline points="430.0,250.0 425.04347065896525,236.31868962467738 414.6665723020181,227.1581670026274 401.8265222111614,224.24344325757653 389.77863361368213,227.66590698889416 381.28206174578173,236.01728276576247 377.9978656054062,246.863671801795 380.20270377786204,257.4157828787789 386.855487339154,265.2189965048409 395.96771992117954,268.6990216624423 405.1614943745361,267.4485091877768 412.2660067569917,262.2118407116087 415.8085787783637,254.6003943014974 415.2947033694515,246.63092556165628 411.2313034000629,240.21250330865035 404.91216790432054,236.70760553499295 398.03867861589265,236.66358051711654 392.28073370744926,239.76144055288287 388.8868623833855,244.97335383047343 388.43057859256845,250.87192063723458 390.7396850434146,256.00402546778344 395.00775033393546,259.2351626244134 400.0441956065621,259.98603471226 404.59096172311223,258.3160104501763 407.62491784208277,254.84837971511715 408.5762197985052,250.57004625183964 407.41924295294695,246.56473372239543 404.6268216346025,243.74880147272947 401.0115694860362,242.67157700882265 397.5023593746368,243.42104192464325 394.9147214302295,245.64703510249498 393.76975705098795,248.68533085892778 394.19955656494415,251.74380031461368 395.95314127873354,254.10094929878747 398.4919657514386,255.26894445496055 401.14398843273625,255.08615134909022 403.2744885324065,253.72412070879844 404.43184695922264,251.61552045896502 404.4363755368367,249.32749218093312 403.39671507954785,247.41542131681075 401.6568370425789,246.2933888773977 399.69272175511884,246.15019637620205 397.98781093429864,246.9263841648147 396.9185569985714,248.35184583854323 396.67603546590595,250.02942259075056 397.23863104383594,251.54043447518927 398.39736332452134,252.54523237771738 399.82288431925133,252.85558740492377 401.15441954121843,252.4645664663326 402.0876390225049,251.5309108646641 402.4408864434345,250.32592279673938 402.1862439656201,249.15892376578952 401.4414703865602,248.30086165855906 400.4284327437241,247.92421583484116 399.4109998470359,248.07178796078864 398.6289641524411,248.65897240918537 398.2439163095821,249.50578606142395 398.3086691779621,250.3882897914556 398.7651839778721,251.09545819743815 399.4687741594321,251.47759921602727 400.2303918244419,251.4757359405497 400.8653270776718,251.12684958898035 401.2362524084409,250.54604720976326 401.2810230758072,249.8920454791332 401.0201434835345,249.32567899420337 400.5440779474976,248.97185873503366 399.98530934528884,248.89360250431534 399.48317091609465,249.08309847287964 399.1504130541792,249.47028342054347 399.0492059105199,249.94525070271368 399.18132579961275,250.387899887367 399.4934845145657,250.69716317598863 399.8951066698387,250.81297270361722 400.2831879616212,250.7264912085272 400.5677120372212,250.47731596224173 400.6915929191139,250.13955345701422 400.6409720379046,249.8011001842107 400.4443651437024,249.54165069689105 400.1619208787344,249.41472817416889 399.86825917575106,249.437582413469 399.63353809904874,249.5905832926425 399.5073721696566,249.82534879032158 399.5091143992656,250.07886406004386 399.62618281813394,250.28969960120594 399.8200596844609,250.41231307838177 400.0378217728192,250.42625232622285 400.22596262770423,250.33857954040644 400.3430366738656,250.17959139810165 400.3682624845023,249.99348002345627 400.30444563008984,249.82661346028888 400.1750740046572,249.71641947074716 400.0168235820558,249.68343058466127 399.86967454856693,249.7280611495903 399.76719061884523,249.83242434431972 399.72923301790695,249.96628204618932 399.758591641241,250.09533441781554 399.8419532203392,250.18967624595774 399.9545659900865,250.2304146182235 400.0671516204246,250.21306595073665 400.15322436794156,250.14723962414874" fill="red" stroke-width="2" fill-opacity="0"/>
<circle cx="400" cy="250" r="5" fill="green"/>
<text x="410" y="240" fill="green" font-family="Arial" font-size="12" font-weight="bold">MPP (S=0)</text>
<text x="130" y="200" fill="#888" font-family="Arial" font-size="12">Region: Increase Duty</text>
<text x="570" y="300" fill="#888" font-family="Arial" font-size="12">Region: Decrease Duty</text>
</svg>